<svg width="24" height="24" viewBox="0 0 24 24" fill="none" xmlns="http://www.w3.org/2000/svg">
<path d="M22 12C22 10.69 21.75 9.43003 21.28 8.28003C20.63 8.73003 19.84 9 19 9C18.06 9 17.19 8.67 16.5 8.12C15.58 7.39 15 6.26 15 5C15 4.25 15.21 3.54 15.58 2.94C15.62 2.87 15.67 2.79998 15.73 2.72998C14.58 2.25998 13.32 2 12 2C6.48 2 2 6.48 2 12C2 17.52 6.48 22 12 22C17.52 22 22 17.52 22 12Z" stroke="#292D32" stroke-width="1.5" stroke-linecap="round" stroke-linejoin="round"/>
<path d="M23 5C23 4.25 22.79 3.54 22.42 2.94C22.21 2.58 21.94 2.26 21.63 2C20.93 1.37 20.01 1 19 1C17.54 1 16.27 1.78 15.58 2.94C15.21 3.54 15 4.25 15 5C15 6.26 15.58 7.39 16.5 8.12C17.19 8.67 18.06 9 19 9C21.21 9 23 7.21 23 5Z" stroke="#292D32" stroke-width="1.5" stroke-miterlimit="10" stroke-linecap="round" stroke-linejoin="round"/>
<path d="M20.49 5.02002H17.51" stroke="#292D32" stroke-width="1.5" stroke-miterlimit="10" stroke-linecap="round" stroke-linejoin="round"/>
<path d="M19 6.47998V3.48999" stroke="#292D32" stroke-width="1.5" stroke-miterlimit="10" stroke-linecap="round" stroke-linejoin="round"/>
<path d="M11 7V18" stroke="#292D32" stroke-width="1.5" stroke-linecap="round" stroke-linejoin="round"/>
<path d="M8 14.75C8 15.9957 8.89055 17 9.997 17H12.2549C13.2174 17 14 16.1212 14 15.0397C14 13.8616 13.5232 13.4464 12.8126 13.176L9.18741 11.824C8.47676 11.5536 8 11.1384 8 9.9603C8 8.87876 8.78261 8 9.74513 8H12.003C13.1094 8 14 9.00429 14 10.25" stroke="#292D32" stroke-width="1.5" stroke-linecap="round" stroke-linejoin="round"/>
</svg>
